<mxfile host="Electron" modified="2023-05-21T02:05:31.225Z" agent="Mozilla/5.0 (Windows NT 10.0; Win64; x64) AppleWebKit/537.36 (KHTML, like Gecko) draw.io/21.2.1 Chrome/112.0.5615.87 Electron/24.1.2 Safari/537.36" etag="zkoqrfScnIP7morYd949" version="21.2.1" type="device">
  <diagram name="Page-1" id="KwYhzg-rQTVOVKY5BMgL">
    <mxGraphModel dx="3152" dy="2553" grid="1" gridSize="10" guides="1" tooltips="1" connect="1" arrows="1" fold="1" page="1" pageScale="1" pageWidth="850" pageHeight="1100" math="0" shadow="0">
      <root>
        <mxCell id="0" />
        <mxCell id="1" parent="0" />
        <mxCell id="TCMFKZz5pY4kq538ls-h-3" value="" style="edgeStyle=orthogonalEdgeStyle;rounded=0;orthogonalLoop=1;jettySize=auto;html=1;fontFamily=Times New Roman;fontSize=14;fontStyle=1" parent="1" source="TCMFKZz5pY4kq538ls-h-1" target="TCMFKZz5pY4kq538ls-h-2" edge="1">
          <mxGeometry relative="1" as="geometry" />
        </mxCell>
        <mxCell id="DhAhzh3n_qNgXryUGVLg-31" value="" style="edgeStyle=orthogonalEdgeStyle;rounded=0;orthogonalLoop=1;jettySize=auto;html=1;fontFamily=Times New Roman;fontSize=14;fontStyle=1" parent="1" source="TCMFKZz5pY4kq538ls-h-1" target="DhAhzh3n_qNgXryUGVLg-30" edge="1">
          <mxGeometry relative="1" as="geometry" />
        </mxCell>
        <mxCell id="DhAhzh3n_qNgXryUGVLg-86" value="" style="edgeStyle=orthogonalEdgeStyle;rounded=0;orthogonalLoop=1;jettySize=auto;html=1;fontFamily=Times New Roman;fontSize=14;fontStyle=1" parent="1" source="TCMFKZz5pY4kq538ls-h-1" target="DhAhzh3n_qNgXryUGVLg-85" edge="1">
          <mxGeometry relative="1" as="geometry" />
        </mxCell>
        <mxCell id="TCMFKZz5pY4kq538ls-h-1" value="Admin" style="rounded=0;whiteSpace=wrap;html=1;fillColor=#1ba1e2;fontColor=#ffffff;strokeColor=#006EAF;fontFamily=Times New Roman;fontSize=14;fontStyle=1" parent="1" vertex="1">
          <mxGeometry x="60" y="170" width="100" height="50" as="geometry" />
        </mxCell>
        <mxCell id="TCMFKZz5pY4kq538ls-h-5" value="" style="edgeStyle=orthogonalEdgeStyle;rounded=0;orthogonalLoop=1;jettySize=auto;html=1;fontFamily=Times New Roman;fontSize=14;fontStyle=1" parent="1" source="TCMFKZz5pY4kq538ls-h-2" target="TCMFKZz5pY4kq538ls-h-4" edge="1">
          <mxGeometry relative="1" as="geometry">
            <Array as="points">
              <mxPoint x="350" y="198" />
              <mxPoint x="350" y="198" />
            </Array>
          </mxGeometry>
        </mxCell>
        <mxCell id="TCMFKZz5pY4kq538ls-h-2" value="&lt;font style=&quot;font-size: 14px;&quot;&gt;&lt;span style=&quot;font-size: 14px;&quot;&gt;Manage&lt;/span&gt;&lt;/font&gt;" style="rhombus;whiteSpace=wrap;html=1;rounded=0;fillColor=#fad9d5;strokeColor=#ae4132;fontFamily=Times New Roman;fontSize=14;fontStyle=1" parent="1" vertex="1">
          <mxGeometry x="285" y="155" width="80" height="80" as="geometry" />
        </mxCell>
        <mxCell id="DhAhzh3n_qNgXryUGVLg-65" value="" style="edgeStyle=orthogonalEdgeStyle;rounded=0;orthogonalLoop=1;jettySize=auto;html=1;fontFamily=Times New Roman;fontSize=14;fontStyle=1" parent="1" source="TCMFKZz5pY4kq538ls-h-4" target="DhAhzh3n_qNgXryUGVLg-64" edge="1">
          <mxGeometry relative="1" as="geometry">
            <Array as="points">
              <mxPoint x="510" y="290" />
              <mxPoint x="635" y="290" />
            </Array>
          </mxGeometry>
        </mxCell>
        <mxCell id="TCMFKZz5pY4kq538ls-h-4" value="&lt;font style=&quot;font-size: 14px;&quot;&gt;&lt;span style=&quot;font-size: 14px;&quot;&gt;Book List&lt;/span&gt;&lt;/font&gt;" style="whiteSpace=wrap;html=1;rounded=0;fillColor=#FFCCE6;strokeColor=default;fontColor=#000000;fontFamily=Times New Roman;fontSize=14;fontStyle=1" parent="1" vertex="1">
          <mxGeometry x="460" y="170" width="100" height="55" as="geometry" />
        </mxCell>
        <mxCell id="OcbyCC3bG5SH6WxlRUtp-1" value="&lt;u style=&quot;font-size: 14px;&quot;&gt;admin_id&lt;/u&gt;" style="ellipse;whiteSpace=wrap;html=1;fillColor=#cce5ff;strokeColor=#36393d;fontFamily=Times New Roman;fontSize=14;fontStyle=1" parent="1" vertex="1">
          <mxGeometry x="-20" y="20" width="80" height="40" as="geometry" />
        </mxCell>
        <mxCell id="OcbyCC3bG5SH6WxlRUtp-13" value="acc_type" style="ellipse;whiteSpace=wrap;html=1;fillColor=#cce5ff;strokeColor=#36393d;fontFamily=Times New Roman;fontSize=14;fontStyle=1" parent="1" vertex="1">
          <mxGeometry x="70" width="80" height="40" as="geometry" />
        </mxCell>
        <mxCell id="OcbyCC3bG5SH6WxlRUtp-20" value="" style="endArrow=none;html=1;rounded=0;exitX=0.5;exitY=0;exitDx=0;exitDy=0;entryX=0.5;entryY=1;entryDx=0;entryDy=0;fontFamily=Times New Roman;fontSize=14;fontStyle=1" parent="1" source="TCMFKZz5pY4kq538ls-h-1" target="OcbyCC3bG5SH6WxlRUtp-1" edge="1">
          <mxGeometry width="50" height="50" relative="1" as="geometry">
            <mxPoint x="-35" y="150" as="sourcePoint" />
            <mxPoint x="15" y="100" as="targetPoint" />
          </mxGeometry>
        </mxCell>
        <mxCell id="OcbyCC3bG5SH6WxlRUtp-26" value="" style="endArrow=none;html=1;rounded=0;exitX=0.5;exitY=0;exitDx=0;exitDy=0;entryX=0.5;entryY=1;entryDx=0;entryDy=0;fontFamily=Times New Roman;fontSize=14;fontStyle=1" parent="1" source="TCMFKZz5pY4kq538ls-h-1" target="OcbyCC3bG5SH6WxlRUtp-13" edge="1">
          <mxGeometry width="50" height="50" relative="1" as="geometry">
            <mxPoint x="150" y="100" as="sourcePoint" />
            <mxPoint x="200" y="50" as="targetPoint" />
            <Array as="points" />
          </mxGeometry>
        </mxCell>
        <mxCell id="DhAhzh3n_qNgXryUGVLg-2" value="&lt;u style=&quot;font-size: 14px;&quot;&gt;&lt;font style=&quot;font-size: 14px;&quot;&gt;&lt;span style=&quot;font-size: 14px;&quot;&gt;Id&lt;/span&gt;&lt;/font&gt;&lt;/u&gt;" style="ellipse;whiteSpace=wrap;html=1;fillColor=#b0e3e6;strokeColor=#0e8088;fontFamily=Times New Roman;fontSize=14;fontStyle=1" parent="1" vertex="1">
          <mxGeometry x="280" y="30" width="85" height="50" as="geometry" />
        </mxCell>
        <mxCell id="DhAhzh3n_qNgXryUGVLg-3" value="&lt;font style=&quot;font-size: 14px;&quot;&gt;&lt;span style=&quot;font-size: 14px;&quot;&gt;Name&lt;/span&gt;&lt;/font&gt;" style="ellipse;whiteSpace=wrap;html=1;fillColor=#b0e3e6;strokeColor=#0e8088;fontFamily=Times New Roman;fontSize=14;fontStyle=1" parent="1" vertex="1">
          <mxGeometry x="355" y="-20" width="85" height="50" as="geometry" />
        </mxCell>
        <mxCell id="DhAhzh3n_qNgXryUGVLg-5" value="&lt;font style=&quot;font-size: 14px;&quot;&gt;&lt;span style=&quot;font-size: 14px;&quot;&gt;Price&lt;/span&gt;&lt;/font&gt;" style="ellipse;whiteSpace=wrap;html=1;fillColor=#b0e3e6;strokeColor=#0e8088;fontFamily=Times New Roman;fontSize=14;fontStyle=1" parent="1" vertex="1">
          <mxGeometry x="600" width="85" height="50" as="geometry" />
        </mxCell>
        <mxCell id="DhAhzh3n_qNgXryUGVLg-7" value="&lt;font style=&quot;font-size: 14px;&quot;&gt;&lt;span style=&quot;font-size: 14px;&quot;&gt;Discount&lt;/span&gt;&lt;/font&gt;" style="ellipse;whiteSpace=wrap;html=1;fillColor=#b0e3e6;strokeColor=#0e8088;fontFamily=Times New Roman;fontSize=14;fontStyle=1" parent="1" vertex="1">
          <mxGeometry x="570" y="-50" width="85" height="50" as="geometry" />
        </mxCell>
        <mxCell id="DhAhzh3n_qNgXryUGVLg-9" value="&lt;font style=&quot;font-size: 14px;&quot;&gt;&lt;span style=&quot;font-size: 14px;&quot;&gt;Writter&lt;/span&gt;&lt;/font&gt;" style="ellipse;whiteSpace=wrap;html=1;fillColor=#b0e3e6;strokeColor=#0e8088;fontFamily=Times New Roman;fontSize=14;fontStyle=1" parent="1" vertex="1">
          <mxGeometry x="610" y="50" width="85" height="50" as="geometry" />
        </mxCell>
        <mxCell id="DhAhzh3n_qNgXryUGVLg-11" value="&lt;font style=&quot;font-size: 14px;&quot;&gt;&lt;span style=&quot;font-size: 14px;&quot;&gt;Quality&lt;/span&gt;&lt;/font&gt;" style="ellipse;whiteSpace=wrap;html=1;fillColor=#b0e3e6;strokeColor=#0e8088;fontFamily=Times New Roman;fontSize=14;fontStyle=1" parent="1" vertex="1">
          <mxGeometry x="420" y="-70" width="85" height="50" as="geometry" />
        </mxCell>
        <mxCell id="DhAhzh3n_qNgXryUGVLg-13" value="&lt;font style=&quot;font-size: 14px;&quot;&gt;&lt;span style=&quot;font-size: 14px;&quot;&gt;Condition&lt;/span&gt;&lt;/font&gt;" style="ellipse;whiteSpace=wrap;html=1;fillColor=#b0e3e6;strokeColor=#0e8088;fontFamily=Times New Roman;fontSize=14;fontStyle=1" parent="1" vertex="1">
          <mxGeometry x="510" y="-90" width="85" height="50" as="geometry" />
        </mxCell>
        <mxCell id="DhAhzh3n_qNgXryUGVLg-15" value="&lt;font style=&quot;font-size: 14px;&quot;&gt;&lt;span style=&quot;font-size: 14px;&quot;&gt;Category&lt;/span&gt;&lt;/font&gt;" style="ellipse;whiteSpace=wrap;html=1;fillColor=#b0e3e6;strokeColor=#0e8088;fontFamily=Times New Roman;fontSize=14;fontStyle=1" parent="1" vertex="1">
          <mxGeometry x="610" y="105" width="85" height="50" as="geometry" />
        </mxCell>
        <mxCell id="DhAhzh3n_qNgXryUGVLg-19" value="" style="endArrow=none;html=1;rounded=0;entryX=0.606;entryY=0.979;entryDx=0;entryDy=0;entryPerimeter=0;exitX=0.5;exitY=0;exitDx=0;exitDy=0;fontFamily=Times New Roman;fontSize=14;fontStyle=1" parent="1" source="TCMFKZz5pY4kq538ls-h-4" target="DhAhzh3n_qNgXryUGVLg-2" edge="1">
          <mxGeometry width="50" height="50" relative="1" as="geometry">
            <mxPoint x="405" y="170" as="sourcePoint" />
            <mxPoint x="455" y="120" as="targetPoint" />
          </mxGeometry>
        </mxCell>
        <mxCell id="DhAhzh3n_qNgXryUGVLg-20" value="" style="endArrow=none;html=1;rounded=0;entryX=0.5;entryY=1;entryDx=0;entryDy=0;exitX=0.5;exitY=0;exitDx=0;exitDy=0;fontFamily=Times New Roman;fontSize=14;fontStyle=1" parent="1" source="TCMFKZz5pY4kq538ls-h-4" target="DhAhzh3n_qNgXryUGVLg-3" edge="1">
          <mxGeometry width="50" height="50" relative="1" as="geometry">
            <mxPoint x="440" y="170" as="sourcePoint" />
            <mxPoint x="490" y="120" as="targetPoint" />
          </mxGeometry>
        </mxCell>
        <mxCell id="DhAhzh3n_qNgXryUGVLg-21" value="" style="endArrow=none;html=1;rounded=0;entryX=0.5;entryY=1;entryDx=0;entryDy=0;exitX=0.5;exitY=0;exitDx=0;exitDy=0;fontFamily=Times New Roman;fontSize=14;fontStyle=1" parent="1" source="TCMFKZz5pY4kq538ls-h-4" target="DhAhzh3n_qNgXryUGVLg-11" edge="1">
          <mxGeometry width="50" height="50" relative="1" as="geometry">
            <mxPoint x="440" y="170" as="sourcePoint" />
            <mxPoint x="490" y="120" as="targetPoint" />
          </mxGeometry>
        </mxCell>
        <mxCell id="DhAhzh3n_qNgXryUGVLg-22" value="" style="endArrow=none;html=1;rounded=0;entryX=0.5;entryY=1;entryDx=0;entryDy=0;exitX=0.5;exitY=0;exitDx=0;exitDy=0;fontFamily=Times New Roman;fontSize=14;fontStyle=1" parent="1" source="TCMFKZz5pY4kq538ls-h-4" target="DhAhzh3n_qNgXryUGVLg-13" edge="1">
          <mxGeometry width="50" height="50" relative="1" as="geometry">
            <mxPoint x="440" y="170" as="sourcePoint" />
            <mxPoint x="490" y="120" as="targetPoint" />
          </mxGeometry>
        </mxCell>
        <mxCell id="DhAhzh3n_qNgXryUGVLg-23" value="" style="endArrow=none;html=1;rounded=0;entryX=0;entryY=1;entryDx=0;entryDy=0;exitX=0.5;exitY=0;exitDx=0;exitDy=0;fontFamily=Times New Roman;fontSize=14;fontStyle=1" parent="1" source="TCMFKZz5pY4kq538ls-h-4" target="DhAhzh3n_qNgXryUGVLg-7" edge="1">
          <mxGeometry width="50" height="50" relative="1" as="geometry">
            <mxPoint x="440" y="170" as="sourcePoint" />
            <mxPoint x="490" y="120" as="targetPoint" />
          </mxGeometry>
        </mxCell>
        <mxCell id="DhAhzh3n_qNgXryUGVLg-24" value="" style="endArrow=none;html=1;rounded=0;entryX=0;entryY=1;entryDx=0;entryDy=0;exitX=0.5;exitY=0;exitDx=0;exitDy=0;fontFamily=Times New Roman;fontSize=14;fontStyle=1" parent="1" source="TCMFKZz5pY4kq538ls-h-4" target="DhAhzh3n_qNgXryUGVLg-5" edge="1">
          <mxGeometry width="50" height="50" relative="1" as="geometry">
            <mxPoint x="440" y="170" as="sourcePoint" />
            <mxPoint x="490" y="120" as="targetPoint" />
          </mxGeometry>
        </mxCell>
        <mxCell id="DhAhzh3n_qNgXryUGVLg-25" value="" style="endArrow=none;html=1;rounded=0;entryX=0;entryY=0.5;entryDx=0;entryDy=0;exitX=0.5;exitY=0;exitDx=0;exitDy=0;fontFamily=Times New Roman;fontSize=14;fontStyle=1" parent="1" source="TCMFKZz5pY4kq538ls-h-4" target="DhAhzh3n_qNgXryUGVLg-9" edge="1">
          <mxGeometry width="50" height="50" relative="1" as="geometry">
            <mxPoint x="440" y="170" as="sourcePoint" />
            <mxPoint x="490" y="120" as="targetPoint" />
          </mxGeometry>
        </mxCell>
        <mxCell id="DhAhzh3n_qNgXryUGVLg-26" value="" style="endArrow=none;html=1;rounded=0;entryX=0;entryY=0.5;entryDx=0;entryDy=0;exitX=0.5;exitY=0;exitDx=0;exitDy=0;fontFamily=Times New Roman;fontSize=14;fontStyle=1" parent="1" source="TCMFKZz5pY4kq538ls-h-4" target="DhAhzh3n_qNgXryUGVLg-15" edge="1">
          <mxGeometry width="50" height="50" relative="1" as="geometry">
            <mxPoint x="440" y="170" as="sourcePoint" />
            <mxPoint x="490" y="120" as="targetPoint" />
          </mxGeometry>
        </mxCell>
        <mxCell id="DhAhzh3n_qNgXryUGVLg-33" value="" style="edgeStyle=orthogonalEdgeStyle;rounded=0;orthogonalLoop=1;jettySize=auto;html=1;fontFamily=Times New Roman;fontSize=14;fontStyle=1" parent="1" source="DhAhzh3n_qNgXryUGVLg-30" target="DhAhzh3n_qNgXryUGVLg-32" edge="1">
          <mxGeometry relative="1" as="geometry" />
        </mxCell>
        <mxCell id="DhAhzh3n_qNgXryUGVLg-30" value="Manage" style="rhombus;whiteSpace=wrap;html=1;rounded=0;fillColor=#fad9d5;strokeColor=#ae4132;fontFamily=Times New Roman;fontSize=14;fontStyle=1" parent="1" vertex="1">
          <mxGeometry x="70" y="285" width="80" height="80" as="geometry" />
        </mxCell>
        <mxCell id="DhAhzh3n_qNgXryUGVLg-36" value="" style="edgeStyle=orthogonalEdgeStyle;rounded=0;orthogonalLoop=1;jettySize=auto;html=1;fontFamily=Times New Roman;fontSize=14;fontStyle=1" parent="1" source="DhAhzh3n_qNgXryUGVLg-32" target="DhAhzh3n_qNgXryUGVLg-35" edge="1">
          <mxGeometry relative="1" as="geometry" />
        </mxCell>
        <mxCell id="DhAhzh3n_qNgXryUGVLg-32" value="Sellers" style="whiteSpace=wrap;html=1;rounded=0;fillColor=#dae8fc;strokeColor=#6c8ebf;fontFamily=Times New Roman;fontSize=14;fontStyle=1" parent="1" vertex="1">
          <mxGeometry x="50" y="455" width="120" height="60" as="geometry" />
        </mxCell>
        <mxCell id="DhAhzh3n_qNgXryUGVLg-38" value="" style="edgeStyle=orthogonalEdgeStyle;rounded=0;orthogonalLoop=1;jettySize=auto;html=1;fontFamily=Times New Roman;fontSize=14;fontStyle=1" parent="1" source="DhAhzh3n_qNgXryUGVLg-35" target="DhAhzh3n_qNgXryUGVLg-37" edge="1">
          <mxGeometry relative="1" as="geometry" />
        </mxCell>
        <mxCell id="DhAhzh3n_qNgXryUGVLg-35" value="Create" style="rhombus;whiteSpace=wrap;html=1;rounded=0;fillColor=#fad9d5;strokeColor=#ae4132;fontFamily=Times New Roman;fontSize=14;fontStyle=1" parent="1" vertex="1">
          <mxGeometry x="70" y="585" width="80" height="80" as="geometry" />
        </mxCell>
        <mxCell id="DhAhzh3n_qNgXryUGVLg-57" value="" style="edgeStyle=orthogonalEdgeStyle;rounded=0;orthogonalLoop=1;jettySize=auto;html=1;fontFamily=Times New Roman;fontSize=14;fontStyle=1" parent="1" source="DhAhzh3n_qNgXryUGVLg-37" target="DhAhzh3n_qNgXryUGVLg-56" edge="1">
          <mxGeometry relative="1" as="geometry" />
        </mxCell>
        <mxCell id="DhAhzh3n_qNgXryUGVLg-37" value="Reports" style="whiteSpace=wrap;html=1;rounded=0;fillColor=#D4E1F5;strokeColor=#9673a6;fontFamily=Times New Roman;fontSize=14;fontStyle=1;" parent="1" vertex="1">
          <mxGeometry x="50" y="755" width="120" height="60" as="geometry" />
        </mxCell>
        <mxCell id="DhAhzh3n_qNgXryUGVLg-39" value="&lt;u style=&quot;font-size: 14px;&quot;&gt;Id&lt;/u&gt;" style="ellipse;whiteSpace=wrap;html=1;fillColor=#f5f5f5;strokeColor=#666666;fontFamily=Times New Roman;fontSize=14;fontStyle=1;gradientColor=#b3b3b3;" parent="1" vertex="1">
          <mxGeometry x="-20" y="850" width="65" height="30" as="geometry" />
        </mxCell>
        <mxCell id="DhAhzh3n_qNgXryUGVLg-40" value="book_id" style="ellipse;whiteSpace=wrap;html=1;fillColor=#f5f5f5;strokeColor=#666666;gradientColor=#b3b3b3;fontFamily=Times New Roman;fontSize=14;fontStyle=1" parent="1" vertex="1">
          <mxGeometry x="40" y="870" width="60" height="30" as="geometry" />
        </mxCell>
        <mxCell id="DhAhzh3n_qNgXryUGVLg-42" value="cust_id" style="ellipse;whiteSpace=wrap;html=1;fillColor=#f5f5f5;gradientColor=#b3b3b3;strokeColor=#666666;fontFamily=Times New Roman;fontSize=14;fontStyle=1" parent="1" vertex="1">
          <mxGeometry x="100" y="880" width="60" height="30" as="geometry" />
        </mxCell>
        <mxCell id="DhAhzh3n_qNgXryUGVLg-44" value="Quantity" style="ellipse;whiteSpace=wrap;html=1;fillColor=#f5f5f5;gradientColor=#b3b3b3;strokeColor=#666666;fontFamily=Times New Roman;fontSize=14;fontStyle=1" parent="1" vertex="1">
          <mxGeometry x="160" y="860" width="60" height="30" as="geometry" />
        </mxCell>
        <mxCell id="DhAhzh3n_qNgXryUGVLg-46" value="Date" style="ellipse;whiteSpace=wrap;html=1;fillColor=#f5f5f5;gradientColor=#b3b3b3;strokeColor=#666666;fontFamily=Times New Roman;fontSize=14;fontStyle=1" parent="1" vertex="1">
          <mxGeometry x="200" y="830" width="60" height="30" as="geometry" />
        </mxCell>
        <mxCell id="DhAhzh3n_qNgXryUGVLg-50" value="" style="endArrow=none;html=1;rounded=0;entryX=0.5;entryY=1;entryDx=0;entryDy=0;fontFamily=Times New Roman;fontSize=14;fontStyle=1" parent="1" target="DhAhzh3n_qNgXryUGVLg-37" edge="1">
          <mxGeometry width="50" height="50" relative="1" as="geometry">
            <mxPoint x="40" y="860" as="sourcePoint" />
            <mxPoint x="90" y="810" as="targetPoint" />
          </mxGeometry>
        </mxCell>
        <mxCell id="DhAhzh3n_qNgXryUGVLg-51" value="" style="endArrow=none;html=1;rounded=0;exitX=0.5;exitY=0;exitDx=0;exitDy=0;fontFamily=Times New Roman;fontSize=14;fontStyle=1" parent="1" source="DhAhzh3n_qNgXryUGVLg-40" edge="1">
          <mxGeometry width="50" height="50" relative="1" as="geometry">
            <mxPoint x="60" y="865" as="sourcePoint" />
            <mxPoint x="110" y="815" as="targetPoint" />
          </mxGeometry>
        </mxCell>
        <mxCell id="DhAhzh3n_qNgXryUGVLg-52" value="" style="endArrow=none;html=1;rounded=0;exitX=0.5;exitY=0;exitDx=0;exitDy=0;fontFamily=Times New Roman;fontSize=14;fontStyle=1" parent="1" source="DhAhzh3n_qNgXryUGVLg-42" edge="1">
          <mxGeometry width="50" height="50" relative="1" as="geometry">
            <mxPoint x="60" y="865" as="sourcePoint" />
            <mxPoint x="110" y="815" as="targetPoint" />
          </mxGeometry>
        </mxCell>
        <mxCell id="DhAhzh3n_qNgXryUGVLg-53" value="" style="endArrow=none;html=1;rounded=0;exitX=0.5;exitY=0;exitDx=0;exitDy=0;fontFamily=Times New Roman;fontSize=14;fontStyle=1" parent="1" source="DhAhzh3n_qNgXryUGVLg-44" edge="1">
          <mxGeometry width="50" height="50" relative="1" as="geometry">
            <mxPoint x="60" y="865" as="sourcePoint" />
            <mxPoint x="110" y="815" as="targetPoint" />
          </mxGeometry>
        </mxCell>
        <mxCell id="DhAhzh3n_qNgXryUGVLg-54" value="" style="endArrow=none;html=1;rounded=0;exitX=0;exitY=0.5;exitDx=0;exitDy=0;entryX=0.5;entryY=1;entryDx=0;entryDy=0;fontFamily=Times New Roman;fontSize=14;fontStyle=1" parent="1" source="DhAhzh3n_qNgXryUGVLg-46" target="DhAhzh3n_qNgXryUGVLg-37" edge="1">
          <mxGeometry width="50" height="50" relative="1" as="geometry">
            <mxPoint x="60" y="865" as="sourcePoint" />
            <mxPoint x="110" y="815" as="targetPoint" />
          </mxGeometry>
        </mxCell>
        <mxCell id="wbtxGybQT27xpBA6Esku-8" style="edgeStyle=orthogonalEdgeStyle;rounded=0;orthogonalLoop=1;jettySize=auto;html=1;entryX=0.25;entryY=1;entryDx=0;entryDy=0;" edge="1" parent="1" source="DhAhzh3n_qNgXryUGVLg-56" target="DhAhzh3n_qNgXryUGVLg-58">
          <mxGeometry relative="1" as="geometry">
            <mxPoint x="590" y="760" as="targetPoint" />
          </mxGeometry>
        </mxCell>
        <mxCell id="DhAhzh3n_qNgXryUGVLg-56" value="Sales to" style="rhombus;whiteSpace=wrap;html=1;rounded=0;fillColor=#fad9d5;strokeColor=#ae4132;fontFamily=Times New Roman;fontSize=14;fontStyle=1" parent="1" vertex="1">
          <mxGeometry x="270" y="745" width="80" height="80" as="geometry" />
        </mxCell>
        <mxCell id="DhAhzh3n_qNgXryUGVLg-61" value="" style="edgeStyle=orthogonalEdgeStyle;rounded=0;orthogonalLoop=1;jettySize=auto;html=1;fontFamily=Times New Roman;fontSize=14;fontStyle=1" parent="1" source="DhAhzh3n_qNgXryUGVLg-58" target="DhAhzh3n_qNgXryUGVLg-60" edge="1">
          <mxGeometry relative="1" as="geometry" />
        </mxCell>
        <mxCell id="DhAhzh3n_qNgXryUGVLg-58" value="Customers" style="whiteSpace=wrap;html=1;rounded=0;fillColor=#d5e8d4;fillStyle=solid;strokeColor=#82b366;fontFamily=Times New Roman;fontSize=14;fontStyle=1" parent="1" vertex="1">
          <mxGeometry x="570" y="605" width="120" height="60" as="geometry" />
        </mxCell>
        <mxCell id="DhAhzh3n_qNgXryUGVLg-63" value="" style="edgeStyle=orthogonalEdgeStyle;rounded=0;orthogonalLoop=1;jettySize=auto;html=1;fontFamily=Times New Roman;fontSize=14;fontStyle=1" parent="1" source="DhAhzh3n_qNgXryUGVLg-60" target="DhAhzh3n_qNgXryUGVLg-62" edge="1">
          <mxGeometry relative="1" as="geometry" />
        </mxCell>
        <mxCell id="DhAhzh3n_qNgXryUGVLg-60" value="Submit" style="rhombus;whiteSpace=wrap;html=1;rounded=0;fillColor=#fad9d5;strokeColor=#ae4132;fontFamily=Times New Roman;fontSize=14;fontStyle=1" parent="1" vertex="1">
          <mxGeometry x="590" y="780" width="80" height="80" as="geometry" />
        </mxCell>
        <mxCell id="DhAhzh3n_qNgXryUGVLg-62" value="Reviews" style="whiteSpace=wrap;html=1;rounded=0;fillColor=#e6b7e2;strokeColor=#9673a6;fontFamily=Times New Roman;fontSize=14;fontStyle=1" parent="1" vertex="1">
          <mxGeometry x="570" y="950" width="120" height="60" as="geometry" />
        </mxCell>
        <mxCell id="DhAhzh3n_qNgXryUGVLg-64" value="&lt;span style=&quot;font-size: 14px;&quot;&gt;&lt;font style=&quot;font-size: 14px;&quot;&gt;Order&lt;/font&gt;&lt;/span&gt;" style="rhombus;whiteSpace=wrap;html=1;rounded=0;fillColor=#fad9d5;strokeColor=#ae4132;fontFamily=Times New Roman;fontSize=14;fontStyle=1" parent="1" vertex="1">
          <mxGeometry x="595" y="390" width="80" height="80" as="geometry" />
        </mxCell>
        <mxCell id="DhAhzh3n_qNgXryUGVLg-68" value="" style="endArrow=none;html=1;rounded=0;exitX=0.5;exitY=0;exitDx=0;exitDy=0;entryX=0.5;entryY=1;entryDx=0;entryDy=0;fontFamily=Times New Roman;fontSize=14;fontStyle=1" parent="1" source="DhAhzh3n_qNgXryUGVLg-58" target="DhAhzh3n_qNgXryUGVLg-64" edge="1">
          <mxGeometry width="50" height="50" relative="1" as="geometry">
            <mxPoint x="510" y="750" as="sourcePoint" />
            <mxPoint x="620" y="470" as="targetPoint" />
          </mxGeometry>
        </mxCell>
        <mxCell id="DhAhzh3n_qNgXryUGVLg-69" value="" style="endArrow=none;html=1;rounded=0;entryX=0.5;entryY=1;entryDx=0;entryDy=0;fontFamily=Times New Roman;fontSize=14;fontStyle=1" parent="1" source="DhAhzh3n_qNgXryUGVLg-70" target="DhAhzh3n_qNgXryUGVLg-62" edge="1">
          <mxGeometry width="50" height="50" relative="1" as="geometry">
            <mxPoint x="425" y="1170" as="sourcePoint" />
            <mxPoint x="475" y="1120" as="targetPoint" />
          </mxGeometry>
        </mxCell>
        <mxCell id="DhAhzh3n_qNgXryUGVLg-71" value="Review" style="ellipse;whiteSpace=wrap;html=1;fillColor=#e6d0de;gradientColor=#d5739d;strokeColor=#996185;fontFamily=Times New Roman;fontSize=14;fontStyle=1" parent="1" vertex="1">
          <mxGeometry x="525" y="1120" width="100" height="60" as="geometry" />
        </mxCell>
        <mxCell id="DhAhzh3n_qNgXryUGVLg-73" value="Book_id" style="ellipse;whiteSpace=wrap;html=1;fillColor=#e6d0de;gradientColor=#d5739d;strokeColor=#996185;fontFamily=Times New Roman;fontSize=14;fontStyle=1" parent="1" vertex="1">
          <mxGeometry x="655" y="1120" width="100" height="60" as="geometry" />
        </mxCell>
        <mxCell id="DhAhzh3n_qNgXryUGVLg-75" value="Cust_Id" style="ellipse;whiteSpace=wrap;html=1;fillColor=#e6d0de;gradientColor=#d5739d;strokeColor=#996185;fontFamily=Times New Roman;fontSize=14;fontStyle=1" parent="1" vertex="1">
          <mxGeometry x="740" y="1070" width="100" height="60" as="geometry" />
        </mxCell>
        <mxCell id="DhAhzh3n_qNgXryUGVLg-78" value="" style="endArrow=none;html=1;rounded=0;entryX=0.5;entryY=1;entryDx=0;entryDy=0;fontFamily=Times New Roman;fontSize=14;fontStyle=1" parent="1" source="DhAhzh3n_qNgXryUGVLg-73" target="DhAhzh3n_qNgXryUGVLg-62" edge="1">
          <mxGeometry width="50" height="50" relative="1" as="geometry">
            <mxPoint x="530" y="1240" as="sourcePoint" />
            <mxPoint x="510" y="1130" as="targetPoint" />
          </mxGeometry>
        </mxCell>
        <mxCell id="DhAhzh3n_qNgXryUGVLg-89" style="edgeStyle=orthogonalEdgeStyle;rounded=0;orthogonalLoop=1;jettySize=auto;html=1;entryX=0;entryY=0.5;entryDx=0;entryDy=0;fontFamily=Times New Roman;fontSize=14;fontStyle=1" parent="1" source="DhAhzh3n_qNgXryUGVLg-85" target="DhAhzh3n_qNgXryUGVLg-37" edge="1">
          <mxGeometry relative="1" as="geometry">
            <Array as="points">
              <mxPoint x="-80" y="785" />
            </Array>
          </mxGeometry>
        </mxCell>
        <mxCell id="DhAhzh3n_qNgXryUGVLg-85" value="Checks" style="rhombus;whiteSpace=wrap;html=1;rounded=0;fillColor=#fad9d5;strokeColor=#ae4132;fontFamily=Times New Roman;fontSize=14;fontStyle=1" parent="1" vertex="1">
          <mxGeometry x="-120" y="470" width="80" height="80" as="geometry" />
        </mxCell>
        <mxCell id="DhAhzh3n_qNgXryUGVLg-91" value="Person" style="rounded=1;whiteSpace=wrap;html=1;fillColor=#ffcc99;strokeColor=#36393d;fontFamily=Times New Roman;fontSize=14;fontStyle=1" parent="1" vertex="1">
          <mxGeometry x="315" y="480" width="120" height="60" as="geometry" />
        </mxCell>
        <mxCell id="JtHMi4f7g_FPW7pWYfN7-2" style="edgeStyle=orthogonalEdgeStyle;rounded=0;orthogonalLoop=1;jettySize=auto;html=1;entryX=0.5;entryY=0;entryDx=0;entryDy=0;fontFamily=Times New Roman;fontSize=14;fontStyle=1" parent="1" source="JtHMi4f7g_FPW7pWYfN7-1" target="DhAhzh3n_qNgXryUGVLg-91" edge="1">
          <mxGeometry relative="1" as="geometry" />
        </mxCell>
        <mxCell id="wbtxGybQT27xpBA6Esku-2" style="edgeStyle=orthogonalEdgeStyle;rounded=0;orthogonalLoop=1;jettySize=auto;html=1;exitX=0;exitY=0.5;exitDx=0;exitDy=0;entryX=0.75;entryY=1;entryDx=0;entryDy=0;" edge="1" parent="1" source="JtHMi4f7g_FPW7pWYfN7-1" target="TCMFKZz5pY4kq538ls-h-1">
          <mxGeometry relative="1" as="geometry" />
        </mxCell>
        <mxCell id="wbtxGybQT27xpBA6Esku-3" style="edgeStyle=orthogonalEdgeStyle;rounded=0;orthogonalLoop=1;jettySize=auto;html=1;exitX=0;exitY=0.5;exitDx=0;exitDy=0;entryX=1;entryY=0.5;entryDx=0;entryDy=0;" edge="1" parent="1" source="JtHMi4f7g_FPW7pWYfN7-1" target="DhAhzh3n_qNgXryUGVLg-32">
          <mxGeometry relative="1" as="geometry">
            <Array as="points">
              <mxPoint x="360" y="320" />
              <mxPoint x="360" y="300" />
              <mxPoint x="242" y="300" />
              <mxPoint x="242" y="485" />
            </Array>
          </mxGeometry>
        </mxCell>
        <mxCell id="wbtxGybQT27xpBA6Esku-6" style="edgeStyle=orthogonalEdgeStyle;rounded=0;orthogonalLoop=1;jettySize=auto;html=1;entryX=0;entryY=0.5;entryDx=0;entryDy=0;exitX=0;exitY=0.25;exitDx=0;exitDy=0;" edge="1" parent="1" source="JtHMi4f7g_FPW7pWYfN7-1" target="DhAhzh3n_qNgXryUGVLg-58">
          <mxGeometry relative="1" as="geometry">
            <Array as="points">
              <mxPoint x="390" y="320" />
              <mxPoint x="390" y="310" />
              <mxPoint x="540" y="310" />
              <mxPoint x="540" y="635" />
            </Array>
          </mxGeometry>
        </mxCell>
        <mxCell id="JtHMi4f7g_FPW7pWYfN7-1" value="IS A" style="triangle;whiteSpace=wrap;html=1;rotation=90;align=center;fillColor=#cdeb8b;strokeColor=#36393d;fontFamily=Times New Roman;fontSize=14;fontStyle=1" parent="1" vertex="1">
          <mxGeometry x="322.5" y="312.5" width="105" height="120" as="geometry" />
        </mxCell>
        <mxCell id="JtHMi4f7g_FPW7pWYfN7-5" value="Mobile" style="ellipse;whiteSpace=wrap;html=1;fillColor=#dae8fc;gradientColor=#7ea6e0;strokeColor=#6c8ebf;fontFamily=Times New Roman;fontSize=14;fontStyle=1" parent="1" vertex="1">
          <mxGeometry x="182.5" y="565" width="85" height="40" as="geometry" />
        </mxCell>
        <mxCell id="JtHMi4f7g_FPW7pWYfN7-6" value="Gender" style="ellipse;whiteSpace=wrap;html=1;fillColor=#dae8fc;gradientColor=#7ea6e0;strokeColor=#6c8ebf;fontFamily=Times New Roman;fontSize=14;fontStyle=1" parent="1" vertex="1">
          <mxGeometry x="235" y="615" width="90" height="50" as="geometry" />
        </mxCell>
        <mxCell id="JtHMi4f7g_FPW7pWYfN7-7" value="Name" style="ellipse;whiteSpace=wrap;html=1;fillColor=#dae8fc;gradientColor=#7ea6e0;strokeColor=#6c8ebf;fontFamily=Times New Roman;fontSize=14;fontStyle=1" parent="1" vertex="1">
          <mxGeometry x="442.5" y="580" width="90" height="40" as="geometry" />
        </mxCell>
        <mxCell id="JtHMi4f7g_FPW7pWYfN7-8" value="Email" style="ellipse;whiteSpace=wrap;html=1;fillColor=#dae8fc;gradientColor=#7ea6e0;strokeColor=#6c8ebf;fontFamily=Times New Roman;fontSize=14;fontStyle=1" parent="1" vertex="1">
          <mxGeometry x="315" y="647.5" width="85" height="40" as="geometry" />
        </mxCell>
        <mxCell id="JtHMi4f7g_FPW7pWYfN7-9" value="Address" style="ellipse;whiteSpace=wrap;html=1;fillColor=#dae8fc;gradientColor=#7ea6e0;strokeColor=#6c8ebf;fontFamily=Times New Roman;fontSize=14;fontStyle=1" parent="1" vertex="1">
          <mxGeometry x="382.5" y="607.5" width="65" height="40" as="geometry" />
        </mxCell>
        <mxCell id="JtHMi4f7g_FPW7pWYfN7-10" value="Password" style="ellipse;whiteSpace=wrap;html=1;fillColor=#dae8fc;gradientColor=#7ea6e0;strokeColor=#6c8ebf;fontFamily=Times New Roman;fontSize=14;fontStyle=1" parent="1" vertex="1">
          <mxGeometry x="432.5" y="635" width="77.5" height="30" as="geometry" />
        </mxCell>
        <mxCell id="JtHMi4f7g_FPW7pWYfN7-11" value="" style="endArrow=none;html=1;rounded=0;entryX=0.5;entryY=1;entryDx=0;entryDy=0;exitX=0.5;exitY=0;exitDx=0;exitDy=0;fontFamily=Times New Roman;fontSize=14;fontStyle=1" parent="1" source="JtHMi4f7g_FPW7pWYfN7-6" target="DhAhzh3n_qNgXryUGVLg-91" edge="1">
          <mxGeometry width="50" height="50" relative="1" as="geometry">
            <mxPoint x="85" y="1310" as="sourcePoint" />
            <mxPoint x="135" y="1260" as="targetPoint" />
          </mxGeometry>
        </mxCell>
        <mxCell id="JtHMi4f7g_FPW7pWYfN7-13" value="" style="endArrow=none;html=1;rounded=0;entryX=0.5;entryY=1;entryDx=0;entryDy=0;exitX=0.5;exitY=0;exitDx=0;exitDy=0;fontFamily=Times New Roman;fontSize=14;fontStyle=1" parent="1" source="JtHMi4f7g_FPW7pWYfN7-7" target="DhAhzh3n_qNgXryUGVLg-91" edge="1">
          <mxGeometry width="50" height="50" relative="1" as="geometry">
            <mxPoint x="10" y="1290" as="sourcePoint" />
            <mxPoint x="50" y="1245" as="targetPoint" />
          </mxGeometry>
        </mxCell>
        <mxCell id="JtHMi4f7g_FPW7pWYfN7-14" value="" style="endArrow=none;html=1;rounded=0;entryX=0.5;entryY=1;entryDx=0;entryDy=0;exitX=1;exitY=0;exitDx=0;exitDy=0;fontFamily=Times New Roman;fontSize=14;fontStyle=1" parent="1" source="JtHMi4f7g_FPW7pWYfN7-5" target="DhAhzh3n_qNgXryUGVLg-91" edge="1">
          <mxGeometry width="50" height="50" relative="1" as="geometry">
            <mxPoint x="-5" y="1265" as="sourcePoint" />
            <mxPoint x="45" y="1215" as="targetPoint" />
          </mxGeometry>
        </mxCell>
        <mxCell id="JtHMi4f7g_FPW7pWYfN7-15" value="" style="endArrow=none;html=1;rounded=0;entryX=0.5;entryY=1;entryDx=0;entryDy=0;exitX=0.5;exitY=0;exitDx=0;exitDy=0;fontFamily=Times New Roman;fontSize=14;fontStyle=1" parent="1" source="JtHMi4f7g_FPW7pWYfN7-8" target="DhAhzh3n_qNgXryUGVLg-91" edge="1">
          <mxGeometry width="50" height="50" relative="1" as="geometry">
            <mxPoint x="190" y="1220" as="sourcePoint" />
            <mxPoint x="240" y="1170" as="targetPoint" />
          </mxGeometry>
        </mxCell>
        <mxCell id="JtHMi4f7g_FPW7pWYfN7-16" value="" style="endArrow=none;html=1;rounded=0;entryX=0.5;entryY=1;entryDx=0;entryDy=0;exitX=0.5;exitY=0;exitDx=0;exitDy=0;fontFamily=Times New Roman;fontSize=14;fontStyle=1" parent="1" source="JtHMi4f7g_FPW7pWYfN7-9" target="DhAhzh3n_qNgXryUGVLg-91" edge="1">
          <mxGeometry width="50" height="50" relative="1" as="geometry">
            <mxPoint x="190" y="1220" as="sourcePoint" />
            <mxPoint x="240" y="1170" as="targetPoint" />
          </mxGeometry>
        </mxCell>
        <mxCell id="JtHMi4f7g_FPW7pWYfN7-17" value="" style="endArrow=none;html=1;rounded=0;exitX=0.5;exitY=0;exitDx=0;exitDy=0;entryX=0.5;entryY=1;entryDx=0;entryDy=0;fontFamily=Times New Roman;fontSize=14;fontStyle=1" parent="1" source="JtHMi4f7g_FPW7pWYfN7-10" target="DhAhzh3n_qNgXryUGVLg-91" edge="1">
          <mxGeometry width="50" height="50" relative="1" as="geometry">
            <mxPoint x="-490" y="1030" as="sourcePoint" />
            <mxPoint x="-540" y="930" as="targetPoint" />
          </mxGeometry>
        </mxCell>
        <mxCell id="DhAhzh3n_qNgXryUGVLg-70" value="&lt;u style=&quot;font-size: 14px;&quot;&gt;Id&amp;nbsp;&lt;/u&gt;" style="ellipse;whiteSpace=wrap;html=1;fillColor=#e6d0de;gradientColor=#d5739d;strokeColor=#996185;fontFamily=Times New Roman;fontSize=14;fontStyle=1" parent="1" vertex="1">
          <mxGeometry x="425" y="1080" width="100" height="60" as="geometry" />
        </mxCell>
        <mxCell id="JtHMi4f7g_FPW7pWYfN7-19" value="" style="endArrow=none;html=1;rounded=0;exitX=0.5;exitY=0;exitDx=0;exitDy=0;entryX=0.5;entryY=1;entryDx=0;entryDy=0;fontFamily=Times New Roman;fontSize=14;fontStyle=1" parent="1" source="DhAhzh3n_qNgXryUGVLg-71" target="DhAhzh3n_qNgXryUGVLg-62" edge="1">
          <mxGeometry width="50" height="50" relative="1" as="geometry">
            <mxPoint x="460" y="1100" as="sourcePoint" />
            <mxPoint x="530" y="1020" as="targetPoint" />
          </mxGeometry>
        </mxCell>
        <mxCell id="JtHMi4f7g_FPW7pWYfN7-20" value="" style="endArrow=none;html=1;rounded=0;entryX=0.5;entryY=1;entryDx=0;entryDy=0;exitX=0;exitY=0;exitDx=0;exitDy=0;fontFamily=Times New Roman;fontSize=14;fontStyle=1" parent="1" source="DhAhzh3n_qNgXryUGVLg-75" target="DhAhzh3n_qNgXryUGVLg-62" edge="1">
          <mxGeometry width="50" height="50" relative="1" as="geometry">
            <mxPoint x="410" y="1230" as="sourcePoint" />
            <mxPoint x="340" y="1170" as="targetPoint" />
          </mxGeometry>
        </mxCell>
        <mxCell id="GJKxjnOsFzHIOYdzqGq--4" value="&lt;font style=&quot;font-size: 14px;&quot;&gt;&lt;span style=&quot;font-size: 14px;&quot;&gt;quantity&lt;/span&gt;&lt;/font&gt;" style="ellipse;whiteSpace=wrap;html=1;fillColor=#e1d5e7;strokeColor=#9673a6;fontFamily=Times New Roman;fontSize=14;fontStyle=1" parent="1" vertex="1">
          <mxGeometry x="740" y="325" width="110" height="65" as="geometry" />
        </mxCell>
        <mxCell id="GJKxjnOsFzHIOYdzqGq--5" value="&lt;font style=&quot;font-size: 14px;&quot;&gt;&lt;span style=&quot;font-size: 14px;&quot;&gt;book_id&lt;/span&gt;&lt;/font&gt;" style="ellipse;whiteSpace=wrap;html=1;fillColor=#e1d5e7;strokeColor=#9673a6;fontFamily=Times New Roman;fontSize=14;fontStyle=1" parent="1" vertex="1">
          <mxGeometry x="720" y="247.5" width="120" height="65" as="geometry" />
        </mxCell>
        <mxCell id="GJKxjnOsFzHIOYdzqGq--6" value="&lt;font style=&quot;font-size: 14px;&quot;&gt;&lt;span style=&quot;font-size: 14px;&quot;&gt;cust_id&lt;/span&gt;&lt;/font&gt;" style="ellipse;whiteSpace=wrap;html=1;fillColor=#e1d5e7;strokeColor=#9673a6;fontFamily=Times New Roman;fontSize=14;fontStyle=1" parent="1" vertex="1">
          <mxGeometry x="720" y="480" width="115" height="70" as="geometry" />
        </mxCell>
        <mxCell id="GJKxjnOsFzHIOYdzqGq--7" value="&lt;font style=&quot;font-size: 14px;&quot;&gt;&lt;span style=&quot;font-size: 14px;&quot;&gt;date&lt;/span&gt;&lt;/font&gt;" style="ellipse;whiteSpace=wrap;html=1;fillColor=#e1d5e7;strokeColor=#9673a6;fontFamily=Times New Roman;fontSize=14;fontStyle=1" parent="1" vertex="1">
          <mxGeometry x="755" y="400" width="110" height="60" as="geometry" />
        </mxCell>
        <mxCell id="GJKxjnOsFzHIOYdzqGq--8" value="" style="endArrow=none;html=1;rounded=0;entryX=0;entryY=0.5;entryDx=0;entryDy=0;exitX=1;exitY=0.5;exitDx=0;exitDy=0;fontFamily=Times New Roman;fontSize=14;fontStyle=1" parent="1" source="DhAhzh3n_qNgXryUGVLg-64" target="GJKxjnOsFzHIOYdzqGq--7" edge="1">
          <mxGeometry width="50" height="50" relative="1" as="geometry">
            <mxPoint x="675" y="432.5" as="sourcePoint" />
            <mxPoint x="725" y="382.5" as="targetPoint" />
          </mxGeometry>
        </mxCell>
        <mxCell id="GJKxjnOsFzHIOYdzqGq--9" value="" style="endArrow=none;html=1;rounded=0;entryX=0;entryY=0.5;entryDx=0;entryDy=0;exitX=1;exitY=0.5;exitDx=0;exitDy=0;fontFamily=Times New Roman;fontSize=14;fontStyle=1" parent="1" source="DhAhzh3n_qNgXryUGVLg-64" target="GJKxjnOsFzHIOYdzqGq--6" edge="1">
          <mxGeometry width="50" height="50" relative="1" as="geometry">
            <mxPoint x="640" y="540" as="sourcePoint" />
            <mxPoint x="690" y="490" as="targetPoint" />
          </mxGeometry>
        </mxCell>
        <mxCell id="GJKxjnOsFzHIOYdzqGq--10" value="" style="endArrow=none;html=1;rounded=0;exitX=1;exitY=0.5;exitDx=0;exitDy=0;fontFamily=Times New Roman;fontSize=14;fontStyle=1" parent="1" source="DhAhzh3n_qNgXryUGVLg-64" edge="1">
          <mxGeometry width="50" height="50" relative="1" as="geometry">
            <mxPoint x="670" y="430" as="sourcePoint" />
            <mxPoint x="740" y="360" as="targetPoint" />
          </mxGeometry>
        </mxCell>
        <mxCell id="GJKxjnOsFzHIOYdzqGq--11" value="" style="endArrow=none;html=1;rounded=0;entryX=1;entryY=0.5;entryDx=0;entryDy=0;exitX=0;exitY=1;exitDx=0;exitDy=0;fontFamily=Times New Roman;fontSize=14;fontStyle=1" parent="1" source="GJKxjnOsFzHIOYdzqGq--5" target="DhAhzh3n_qNgXryUGVLg-64" edge="1">
          <mxGeometry width="50" height="50" relative="1" as="geometry">
            <mxPoint x="690" y="330" as="sourcePoint" />
            <mxPoint x="690" y="490" as="targetPoint" />
          </mxGeometry>
        </mxCell>
      </root>
    </mxGraphModel>
  </diagram>
</mxfile>
